<?xml version="1.0" encoding="utf-8"?>
<!-- Generator: Adobe Illustrator 27.0.0, SVG Export Plug-In . SVG Version: 6.00 Build 0)  -->
<svg version="1.1" id="Capa_1" xmlns="http://www.w3.org/2000/svg" xmlns:xlink="http://www.w3.org/1999/xlink" x="0px" y="0px"
	 viewBox="0 0 287 344" style="enable-background:new 0 0 287 344;" xml:space="preserve">
<style type="text/css">
	.st0{filter:url(#Adobe_OpacityMaskFilter);}
	.st1{filter:url(#Adobe_OpacityMaskFilter_00000039116046364343706350000001863348882792904350_);}
	.st2{mask:url(#SVGID_1_);fill:url(#SVGID_00000121249051422742875830000000526387090771672981_);}
	.st3{fill:url(#SVGID_00000160155271034317140100000011965917006881098404_);}
	.st4{fill:url(#SVGID_00000088113617702936682420000007165649927270848185_);}
	.st5{fill:url(#SVGID_00000070076664115124295550000016574930521968916401_);}
	.st6{fill:url(#SVGID_00000119086154151960583780000003344857130944800687_);}
	.st7{filter:url(#Adobe_OpacityMaskFilter_00000173863825269120200660000009476969992609186968_);}
	.st8{filter:url(#Adobe_OpacityMaskFilter_00000183217875780111651250000013179216874436317846_);}
	
		.st9{clip-path:url(#SVGID_00000171685575899412939260000002640126830277417613_);mask:url(#SVGID_00000122708550496594353930000010347904117316179872_);fill:url(#SVGID_00000165221357871062562770000003993331839756096443_);}
	
		.st10{clip-path:url(#SVGID_00000171685575899412939260000002640126830277417613_);fill:url(#SVGID_00000134213759763353387210000015973524350985344160_);}
	.st11{fill:url(#SVGID_00000017501716704241386880000000154152849743802009_);}
	.st12{filter:url(#Adobe_OpacityMaskFilter_00000176024388302828820400000005230985079226530985_);}
	.st13{filter:url(#Adobe_OpacityMaskFilter_00000158740686087906527900000015282313124604520335_);}
	
		.st14{mask:url(#SVGID_00000141435944382212576900000006562013270226479805_);fill:url(#SVGID_00000067941589849991603490000012489787553477782183_);}
	.st15{fill:url(#SVGID_00000179616862415973790130000008054551581905710238_);}
	.st16{fill:url(#SVGID_00000109712190643457376220000002724376405250507440_);}
	.st17{fill:url(#SVGID_00000039835250345494474970000013575098364574647974_);}
	.st18{fill:url(#SVGID_00000005241251511006211320000001755758643452080567_);}
	.st19{fill:url(#SVGID_00000021801826807094758020000010323094318606034852_);}
	.st20{fill:url(#SVGID_00000012433518646275532380000000429996502159699878_);}
	.st21{fill:url(#SVGID_00000020388105318845444630000008048783462533234346_);}
	.st22{filter:url(#Adobe_OpacityMaskFilter_00000156570522981197831330000004480470580937569453_);}
	.st23{filter:url(#Adobe_OpacityMaskFilter_00000181779525534018096720000000531919436504136099_);}
	
		.st24{mask:url(#SVGID_00000047759272124483946220000004811660651634871711_);fill:url(#SVGID_00000106127204909775999580000001557383345455564988_);}
	.st25{fill:url(#SVGID_00000092457680783088852360000014531246974988126350_);}
	.st26{fill:url(#SVGID_00000163763875567346362270000017350290799203609021_);}
</style>
<g>
	<defs>
		<filter id="Adobe_OpacityMaskFilter" filterUnits="userSpaceOnUse" x="20.89" y="245.21" width="246.58" height="68.95">
			<feColorMatrix  type="matrix" values="1 0 0 0 0  0 1 0 0 0  0 0 1 0 0  0 0 0 1 0"/>
		</filter>
	</defs>
	<mask maskUnits="userSpaceOnUse" x="20.89" y="245.21" width="246.58" height="68.95" id="SVGID_1_">
		<g class="st0">
			<defs>
				
					<filter id="Adobe_OpacityMaskFilter_00000004526033350499759050000001385275106744466336_" filterUnits="userSpaceOnUse" x="20.89" y="245.21" width="246.58" height="68.95">
					<feFlood  style="flood-color:white;flood-opacity:1" result="back"/>
					<feBlend  in="SourceGraphic" in2="back" mode="normal"/>
				</filter>
			</defs>
			<mask maskUnits="userSpaceOnUse" x="20.89" y="245.21" width="246.58" height="68.95" id="SVGID_1_">
				<g style="filter:url(#Adobe_OpacityMaskFilter_00000004526033350499759050000001385275106744466336_);">
				</g>
			</mask>
			
				<radialGradient id="SVGID_00000016780888398512324900000015388469938053031309_" cx="-1937.3981" cy="-1110.8312" r="32.1535" gradientTransform="matrix(0 -1.0723 -3.8344 0 -4115.189 -1797.783)" gradientUnits="userSpaceOnUse">
				<stop  offset="0" style="stop-color:#666666"/>
				<stop  offset="7.975399e-03" style="stop-color:#656565"/>
				<stop  offset="0.4688" style="stop-color:#2F2F2F"/>
				<stop  offset="0.8132" style="stop-color:#0D0D0D"/>
				<stop  offset="1" style="stop-color:#000000"/>
			</radialGradient>
			
				<ellipse style="mask:url(#SVGID_1_);fill:url(#SVGID_00000016780888398512324900000015388469938053031309_);" cx="144.18" cy="279.69" rx="123.29" ry="34.48"/>
		</g>
	</mask>
	
		<radialGradient id="SVGID_00000127741334124185012730000014087554942758575778_" cx="-1937.3981" cy="-1110.8312" r="32.1535" gradientTransform="matrix(0 -1.0723 -3.8344 0 -4115.189 -1797.783)" gradientUnits="userSpaceOnUse">
		<stop  offset="0" style="stop-color:#729EB1"/>
		<stop  offset="0.1529" style="stop-color:#7DA4B4"/>
		<stop  offset="0.7013" style="stop-color:#9EB8BF"/>
		<stop  offset="1" style="stop-color:#ABC0C3"/>
	</radialGradient>
	
		<ellipse style="fill:url(#SVGID_00000127741334124185012730000014087554942758575778_);" cx="144.18" cy="279.69" rx="123.29" ry="34.48"/>
	<g>
		
			<linearGradient id="SVGID_00000143598593942897126880000011154007235262809518_" gradientUnits="userSpaceOnUse" x1="149.3385" y1="33.0653" x2="149.4001" y2="68.5098">
			<stop  offset="0" style="stop-color:#BA7CED"/>
			<stop  offset="0.4981" style="stop-color:#9A6CF0"/>
			<stop  offset="0.5764" style="stop-color:#976AEC"/>
			<stop  offset="0.6607" style="stop-color:#8E64DF"/>
			<stop  offset="0.7477" style="stop-color:#8059C9"/>
			<stop  offset="0.8367" style="stop-color:#6C4AAB"/>
			<stop  offset="0.9264" style="stop-color:#523885"/>
			<stop  offset="0.982" style="stop-color:#402A69"/>
		</linearGradient>
		<path style="fill:url(#SVGID_00000143598593942897126880000011154007235262809518_);" d="M123.23,56.55
			c-0.64,1.91,0.53,3.85,0.79,5.76c0.42,3.04-0.07,6.16-0.51,9.16c-0.29,1.97-0.47,4.28,0.99,5.64c1.22,1.14,3.1,1.11,4.78,1.01
			c11.05-0.67,22.09-1.33,33.14-2c2.19-0.13,4.37-0.37,6.56-0.58c1.24-0.12,4.09,0.47,5-0.63c0.4-0.49,0.46-1.17,0.34-1.79
			c-0.62-3.17-1.86-6.21-0.37-9.98c1.42-3.6,2.46-7.45,1.23-10.38c-1.02-2.42-3.38-3.86-6.15-3.98c-2.37-0.1-5.12,0.84-7.79,1.33
			c-4.64,0.85-5.29-0.01-5.38-0.78c-0.31-2.53,1.14-4.58,1.13-7.17c-0.01-2.52-0.94-5-2.92-6.58c-2.62-2.09-5.35-2.27-7.04-2.18
			c-3.61,0.18-6.86,7.92-6.55,11.4c0.09,0.97-0.18,5.44-0.75,6.52c-0.56,1.06-1.81,0.79-2.79,0.77c-3.17-0.05-6.43,0.46-9.49,1.32
			C125.8,53.86,123.84,54.74,123.23,56.55z M147.12,39.05c2.88-1.88,5.44,0.74,5.69,3.67c0.25,2.92-2.2,8.48-5.86,6.24
			c-0.71-0.43-1.21-1.17-1.51-1.96C144.49,44.52,144.68,40.65,147.12,39.05z"/>
		
			<linearGradient id="SVGID_00000039117341415753822010000014095262240385642942_" gradientUnits="userSpaceOnUse" x1="145.4527" y1="34.0982" x2="149.2288" y2="76.6685">
			<stop  offset="0" style="stop-color:#BA7CED"/>
			<stop  offset="0.0164" style="stop-color:#B178EE"/>
			<stop  offset="0.0541" style="stop-color:#A471EF"/>
			<stop  offset="0.1022" style="stop-color:#9C6DF0"/>
			<stop  offset="0.195" style="stop-color:#9A6CF0"/>
			<stop  offset="0.2487" style="stop-color:#976AEC"/>
			<stop  offset="0.3064" style="stop-color:#8E63DF"/>
			<stop  offset="0.3661" style="stop-color:#7F57C9"/>
			<stop  offset="0.4267" style="stop-color:#6B46AB"/>
			<stop  offset="0.4309" style="stop-color:#6945A9"/>
			<stop  offset="0.4677" style="stop-color:#6C47AD"/>
			<stop  offset="0.5082" style="stop-color:#754FBB"/>
			<stop  offset="0.5506" style="stop-color:#845BD1"/>
			<stop  offset="0.5939" style="stop-color:#9A6CEF"/>
			<stop  offset="0.5947" style="stop-color:#9A6CF0"/>
		</linearGradient>
		<path style="fill:url(#SVGID_00000039117341415753822010000014095262240385642942_);" d="M121.38,56.14
			c-0.64,1.91,0.53,3.85,0.79,5.76c0.42,3.04-0.07,6.16-0.51,9.16c-0.29,1.97-0.47,4.28,0.99,5.64c1.22,1.14,3.1,1.11,4.78,1.01
			c11.05-0.67,22.09-1.33,33.14-2c2.19-0.13,4.37-0.37,6.56-0.58c1.37-0.13,2.91,0.33,4.25,0.06c3.22-0.65,1.57-5.77,1.39-7.72
			c-0.15-1.63,0.16-3.26,0.58-4.83c0.41-1.54,0.89-3.09,1.25-4.66c0.23-1.02,0.38-2.41,0.1-3.8c-0.38-1.87-1.47-3.1-2.87-3.65
			c-4.99-1.94-15.74,0.17-16.35-0.02c-1.67-0.52-1.27-2.62-0.96-3.91c0.39-1.62,1.08-3.21,0.96-4.91c-0.18-2.5-1.28-4.95-3.26-6.54
			c-2.62-2.09-6.62-2.39-9.47-0.56c-3.04,1.96-4.43,6.3-4.11,9.77c0.09,0.97-0.18,5.44-0.75,6.52c-0.56,1.06-1.81,0.79-2.79,0.77
			c-3.17-0.05-6.43,0.46-9.49,1.32C123.95,53.45,121.99,54.33,121.38,56.14z M145.27,38.64c2.88-1.88,5.44,0.74,5.69,3.67
			c0.25,2.92-2.2,8.48-5.86,6.24c-0.71-0.43-1.21-1.17-1.51-1.96C142.64,44.11,142.83,40.24,145.27,38.64z"/>
		
			<linearGradient id="SVGID_00000035490955927840718600000016401913830875317162_" gradientUnits="userSpaceOnUse" x1="146.1285" y1="53.179" x2="146.6832" y2="271.7631">
			<stop  offset="0" style="stop-color:#F0592A"/>
			<stop  offset="1" style="stop-color:#C72F00"/>
		</linearGradient>
		<path style="fill:url(#SVGID_00000035490955927840718600000016401913830875317162_);" d="M219.02,275.37L67.2,275.49
			c-6.53,0-11.98-7.33-13.66-9.43c-1.43-1.8-1.5-4.64-1.25-7.13L76.64,77.28c0.44-4.48,4.08-7.98,8.57-8.26l140.38-15.8
			c0,0,4.08,0.84,7.53,1.93c3.46,1.09,7.84,4.35,7.49,9.86l-12.44,201.77C227.87,271.6,223.86,275.36,219.02,275.37z"/>
		<g>
			<defs>
				<path id="SVGID_00000014593693142993914640000008926944841838699141_" d="M211.51,268.3l-151.82,0.13
					c-5.43,0-9.67-4.68-9.14-10.08L69.13,70.21c0.44-4.48,4.08-7.98,8.57-8.26l145.69-8.88c5.51-0.34,10.07,4.23,9.72,9.74
					L220.66,259.7C220.36,264.53,216.35,268.29,211.51,268.3z"/>
			</defs>
			
				<linearGradient id="SVGID_00000136385193834628727790000006412215313235566246_" gradientUnits="userSpaceOnUse" x1="146.7085" y1="19.1633" x2="136.3933" y2="317.5976">
				<stop  offset="0" style="stop-color:#F0592A"/>
				<stop  offset="0.112" style="stop-color:#F66935"/>
				<stop  offset="0.247" style="stop-color:#FA753C"/>
				<stop  offset="0.3821" style="stop-color:#FB793F"/>
				<stop  offset="0.536" style="stop-color:#F8753C"/>
				<stop  offset="0.675" style="stop-color:#F16A33"/>
				<stop  offset="0.8084" style="stop-color:#E45823"/>
				<stop  offset="0.9375" style="stop-color:#D23E0D"/>
				<stop  offset="1" style="stop-color:#C72F00"/>
			</linearGradient>
			
				<use xlink:href="#SVGID_00000014593693142993914640000008926944841838699141_"  style="overflow:visible;fill:url(#SVGID_00000136385193834628727790000006412215313235566246_);"/>
			<clipPath id="SVGID_00000091715699481059268900000009567800517072063644_">
				<use xlink:href="#SVGID_00000014593693142993914640000008926944841838699141_"  style="overflow:visible;"/>
			</clipPath>
			<defs>
				
					<filter id="Adobe_OpacityMaskFilter_00000023280249686158752400000001722864978846514850_" filterUnits="userSpaceOnUse" x="148.84" y="140.66" width="94.12" height="156.43">
					<feColorMatrix  type="matrix" values="1 0 0 0 0  0 1 0 0 0  0 0 1 0 0  0 0 0 1 0"/>
				</filter>
			</defs>
			
				<mask maskUnits="userSpaceOnUse" x="148.84" y="140.66" width="94.12" height="156.43" id="SVGID_00000108289817478616947470000013278031673306094729_">
				<g style="filter:url(#Adobe_OpacityMaskFilter_00000023280249686158752400000001722864978846514850_);">
					<defs>
						
							<filter id="Adobe_OpacityMaskFilter_00000183936094681609443810000012830135852455797164_" filterUnits="userSpaceOnUse" x="148.84" y="140.66" width="94.12" height="156.43">
							<feFlood  style="flood-color:white;flood-opacity:1" result="back"/>
							<feBlend  in="SourceGraphic" in2="back" mode="normal"/>
						</filter>
					</defs>
					
						<mask maskUnits="userSpaceOnUse" x="148.84" y="140.66" width="94.12" height="156.43" id="SVGID_00000108289817478616947470000013278031673306094729_">
						<g style="filter:url(#Adobe_OpacityMaskFilter_00000183936094681609443810000012830135852455797164_);">
						</g>
					</mask>
					
						<radialGradient id="SVGID_00000178206934637972075130000017562263305859177638_" cx="-2357.0894" cy="-1096.1931" r="32.1538" gradientTransform="matrix(0.8219 -2.3964 -1.2109 -0.4153 805.8168 -5884.9023)" gradientUnits="userSpaceOnUse">
						<stop  offset="0" style="stop-color:#666666"/>
						<stop  offset="7.975399e-03" style="stop-color:#656565"/>
						<stop  offset="0.4688" style="stop-color:#2F2F2F"/>
						<stop  offset="0.8132" style="stop-color:#0D0D0D"/>
						<stop  offset="1" style="stop-color:#000000"/>
					</radialGradient>
					
						<path style="clip-path:url(#SVGID_00000091715699481059268900000009567800517072063644_);mask:url(#SVGID_00000108289817478616947470000013278031673306094729_);fill:url(#SVGID_00000178206934637972075130000017562263305859177638_);" d="
						M222.33,141.82c-21.5-7.37-50.77,21.14-65.36,63.7c-14.59,42.55-8.99,83.03,12.51,90.41s50.77-21.14,65.36-63.7
						C249.44,189.67,243.83,149.2,222.33,141.82z"/>
				</g>
			</mask>
			
				<radialGradient id="SVGID_00000136395991485921207520000003706840728720207017_" cx="-2357.0894" cy="-1096.1931" r="32.1538" gradientTransform="matrix(0.8219 -2.3964 -1.2109 -0.4153 805.8168 -5884.9023)" gradientUnits="userSpaceOnUse">
				<stop  offset="3.000000e-08" style="stop-color:#C40000"/>
				<stop  offset="9.966998e-03" style="stop-color:#C40100"/>
				<stop  offset="0.651" style="stop-color:#C62200"/>
				<stop  offset="1" style="stop-color:#C72F00"/>
			</radialGradient>
			
				<path style="clip-path:url(#SVGID_00000091715699481059268900000009567800517072063644_);fill:url(#SVGID_00000136395991485921207520000003706840728720207017_);" d="
				M222.33,141.82c-21.5-7.37-50.77,21.14-65.36,63.7c-14.59,42.55-8.99,83.03,12.51,90.41s50.77-21.14,65.36-63.7
				C249.44,189.67,243.83,149.2,222.33,141.82z"/>
		</g>
		<g>
			
				<radialGradient id="SVGID_00000010282555876161207020000009545568693267453825_" cx="-241.3371" cy="85.8944" r="488.997" gradientUnits="userSpaceOnUse">
				<stop  offset="0.6262" style="stop-color:#BED8D9"/>
				<stop  offset="0.6285" style="stop-color:#C1DADB"/>
				<stop  offset="0.6496" style="stop-color:#D7E7E9"/>
				<stop  offset="0.6727" style="stop-color:#E7F1F3"/>
				<stop  offset="0.699" style="stop-color:#F0F6F9"/>
				<stop  offset="0.7355" style="stop-color:#F3F8FB"/>
				<stop  offset="0.8175" style="stop-color:#F3F8FB"/>
				<stop  offset="0.8246" style="stop-color:#F3F8FB"/>
				<stop  offset="0.8491" style="stop-color:#EAF3F5"/>
				<stop  offset="0.8889" style="stop-color:#D2E4E6"/>
				<stop  offset="0.9152" style="stop-color:#BED8D9"/>
				<stop  offset="0.9464" style="stop-color:#B9D2D3"/>
				<stop  offset="0.9878" style="stop-color:#ABC1C4"/>
				<stop  offset="1" style="stop-color:#A6BBBE"/>
			</radialGradient>
			<path style="fill:url(#SVGID_00000010282555876161207020000009545568693267453825_);" d="M86.95,65.15
				c-2.46,0.15-4.46,2.04-4.75,4.49c-1.62,13.89-6.64,57.82-6.52,68.8c0.37,34.12-8.15,68.29-24.49,98.24
				c-3.08,5.65-6.09,13.73,0.36,17.17c1.31,0.7,2.79,1.02,4.28,1.04c30.46,0.3,60.93,0.6,91.39,0.91
				c10.31,0.1,29.67,2.05,33.11-1.17c7.4-6.95,11.51-17.1,15.55-26.07c8.22-18.23,10.45-38.56,11.22-58.54
				c0.57-14.8,1.15-29.6,2.46-44.36c1.34-15.01,3.06-29.99,4.17-45.03c0.46-6.18,0.81-12.36,1-18.55c0.03-0.96,0.27-4.61,0.27-4.61
				L86.95,65.15z"/>
			<defs>
				
					<filter id="Adobe_OpacityMaskFilter_00000053531385124789266400000011812863086480875676_" filterUnits="userSpaceOnUse" x="47.73" y="57.47" width="167.26" height="199.01">
					<feColorMatrix  type="matrix" values="1 0 0 0 0  0 1 0 0 0  0 0 1 0 0  0 0 0 1 0"/>
				</filter>
			</defs>
			
				<mask maskUnits="userSpaceOnUse" x="47.73" y="57.47" width="167.26" height="199.01" id="SVGID_00000107566846218745751740000010249058791934147201_">
				<g style="filter:url(#Adobe_OpacityMaskFilter_00000053531385124789266400000011812863086480875676_);">
					<defs>
						
							<filter id="Adobe_OpacityMaskFilter_00000120548600859165681750000001336439347502475170_" filterUnits="userSpaceOnUse" x="47.73" y="57.47" width="167.26" height="199.01">
							<feFlood  style="flood-color:white;flood-opacity:1" result="back"/>
							<feBlend  in="SourceGraphic" in2="back" mode="normal"/>
						</filter>
					</defs>
					
						<mask maskUnits="userSpaceOnUse" x="47.73" y="57.47" width="167.26" height="199.01" id="SVGID_00000107566846218745751740000010249058791934147201_">
						<g style="filter:url(#Adobe_OpacityMaskFilter_00000120548600859165681750000001336439347502475170_);">
						</g>
					</mask>
					
						<linearGradient id="SVGID_00000123408695528581916240000008496992809587566982_" gradientUnits="userSpaceOnUse" x1="131.5683" y1="42.0449" x2="131.152" y2="262.2868">
						<stop  offset="0" style="stop-color:#FFFFFF"/>
						<stop  offset="0.2142" style="stop-color:#000000"/>
						<stop  offset="0.7221" style="stop-color:#808080"/>
						<stop  offset="0.9026" style="stop-color:#000000"/>
						<stop  offset="0.9209" style="stop-color:#323232"/>
						<stop  offset="0.9624" style="stop-color:#B0B0B0"/>
						<stop  offset="0.9878" style="stop-color:#FFFFFF"/>
					</linearGradient>
					
						<path style="mask:url(#SVGID_00000107566846218745751740000010249058791934147201_);fill:url(#SVGID_00000123408695528581916240000008496992809587566982_);" d="
						M214.99,57.47C207.23,58,109.19,63.83,87.1,65.14c-2.53,0.15-4.56,2.13-4.77,4.65c-0.86,10.21-4.24,35.39-6.02,56.51
						c-1.3,15.5-1.19,29.23-1.35,31.15c-2.36,27.67-10.48,54.84-23.78,79.22c-3.08,5.65-6.09,13.73,0.36,17.17
						c1.31,0.7,2.79,1.02,4.28,1.04c30.46,0.3,60.93,0.6,91.39,0.91c10.31,0.1,29.67,2.05,33.11-1.17
						c7.4-6.95,11.51-17.1,15.55-26.07c8.22-18.23,10.45-38.56,11.22-58.54c0.98-25.5,3.12-50.79,5.37-76.21
						C213.52,81.89,214.99,57.47,214.99,57.47z"/>
				</g>
			</mask>
			
				<linearGradient id="SVGID_00000031906840806634938440000017748141564561630380_" gradientUnits="userSpaceOnUse" x1="131.5683" y1="42.0449" x2="131.152" y2="262.2868">
				<stop  offset="0" style="stop-color:#BED8D9"/>
				<stop  offset="0.2142" style="stop-color:#F3F8FB"/>
				<stop  offset="0.7221" style="stop-color:#BED8D9"/>
				<stop  offset="0.9026" style="stop-color:#BED8D9"/>
				<stop  offset="0.9878" style="stop-color:#A6BBBE"/>
			</linearGradient>
			<path style="fill:url(#SVGID_00000031906840806634938440000017748141564561630380_);" d="M214.99,57.47
				C207.23,58,109.19,63.83,87.1,65.14c-2.53,0.15-4.56,2.13-4.77,4.65c-0.86,10.21-4.24,35.39-6.02,56.51
				c-1.3,15.5-1.19,29.23-1.35,31.15c-2.36,27.67-10.48,54.84-23.78,79.22c-3.08,5.65-6.09,13.73,0.36,17.17
				c1.31,0.7,2.79,1.02,4.28,1.04c30.46,0.3,60.93,0.6,91.39,0.91c10.31,0.1,29.67,2.05,33.11-1.17c7.4-6.95,11.51-17.1,15.55-26.07
				c8.22-18.23,10.45-38.56,11.22-58.54c0.98-25.5,3.12-50.79,5.37-76.21C213.52,81.89,214.99,57.47,214.99,57.47z"/>
			
				<linearGradient id="SVGID_00000060030807546652515120000014278717250156626367_" gradientUnits="userSpaceOnUse" x1="201.5305" y1="25.5189" x2="191.5445" y2="258.528">
				<stop  offset="0" style="stop-color:#BED8D9"/>
				<stop  offset="1" style="stop-color:#A6BBBE"/>
			</linearGradient>
			<path style="fill:url(#SVGID_00000060030807546652515120000014278717250156626367_);" d="M218.36,59.94
				c0.57,1.48,0.58,3.32,0.5,4.7c-1.19,20.9-3.09,41.6-3.98,62.5c-1.11,25.83-1.82,52.47-8.55,77.56
				c-3.27,12.19-7.93,24.12-14.48,34.92c-2.26,3.72-4.75,7.31-7.47,10.72c-2.03,2.54-4.75,6.18-8.44,4.46
				c-3.21-1.49-3.98-6-1.69-8.62c3.34-3.82,6.41-8.03,9.18-12.63c5.99-9.92,10.24-20.97,13.21-32.13
				c3.83-14.39,5.59-29.41,6.6-44.19c1.12-16.32,1.5-32.66,2.76-48.97c0.93-12.06,1.67-24.48,3.06-36.61
				c0.44-3.79,0.39-9.27,2.73-12.47c1.17-1.6,3.42-2.29,5.15-1.13C217.6,58.49,218.06,59.16,218.36,59.94z"/>
			
				<linearGradient id="SVGID_00000047062421344593887690000016973624202511106230_" gradientUnits="userSpaceOnUse" x1="292.1947" y1="91.7845" x2="291.5945" y2="110.59" gradientTransform="matrix(0.9973 -0.0728 0.0728 0.9973 -162.1448 86.1682)">
				<stop  offset="0" style="stop-color:#9A6CF0"/>
				<stop  offset="0.0547" style="stop-color:#AE78F6"/>
				<stop  offset="0.1231" style="stop-color:#C182FB"/>
				<stop  offset="0.195" style="stop-color:#CB88FE"/>
				<stop  offset="0.2755" style="stop-color:#CF8AFF"/>
				<stop  offset="0.3745" style="stop-color:#C080F2"/>
				<stop  offset="0.566" style="stop-color:#9864D0"/>
				<stop  offset="0.7594" style="stop-color:#6945A8"/>
				<stop  offset="0.8151" style="stop-color:#6C47AC"/>
				<stop  offset="0.8725" style="stop-color:#744EB8"/>
				<stop  offset="0.9307" style="stop-color:#8259CD"/>
				<stop  offset="0.9891" style="stop-color:#9669EA"/>
				<stop  offset="1" style="stop-color:#9A6CF0"/>
			</linearGradient>
			<path style="fill:url(#SVGID_00000047062421344593887690000016973624202511106230_);" d="M174.24,157.44c-0.04,0-0.08,0-0.12,0
				c-24.94,0.85-49.87,1.69-74.8,2.54c-3.45,0.15-6.53,3.09-6.91,6.56c-0.38,3.41,2.01,6.04,5.42,5.95c0.02,0,0.03,0,0.05,0
				c0.04,0,75.84-2.99,75.84-2.99c3.5-0.18,6.43-3.01,6.52-6.33C180.32,159.89,177.63,157.36,174.24,157.44z"/>
			
				<linearGradient id="SVGID_00000088106838570198775700000006452901085115414160_" gradientUnits="userSpaceOnUse" x1="297.2173" y1="62.88" x2="296.5902" y2="81.022" gradientTransform="matrix(0.9973 -0.0728 0.0728 0.9973 -162.1448 86.1682)">
				<stop  offset="0" style="stop-color:#9A6CF0"/>
				<stop  offset="0.0547" style="stop-color:#AE78F6"/>
				<stop  offset="0.1231" style="stop-color:#C182FB"/>
				<stop  offset="0.195" style="stop-color:#CB88FE"/>
				<stop  offset="0.2755" style="stop-color:#CF8AFF"/>
				<stop  offset="0.3745" style="stop-color:#C080F2"/>
				<stop  offset="0.566" style="stop-color:#9864D0"/>
				<stop  offset="0.7594" style="stop-color:#6945A8"/>
				<stop  offset="0.8151" style="stop-color:#6C47AC"/>
				<stop  offset="0.8725" style="stop-color:#744EB8"/>
				<stop  offset="0.9307" style="stop-color:#8259CD"/>
				<stop  offset="0.9891" style="stop-color:#9669EA"/>
				<stop  offset="1" style="stop-color:#9A6CF0"/>
			</linearGradient>
			<path style="fill:url(#SVGID_00000088106838570198775700000006452901085115414160_);" d="M177.1,127.87c-0.04,0-0.08,0-0.12,0
				c-24.94,0.85-49.87,1.69-74.8,2.54c-3.45,0.15-6.53,3.09-6.91,6.56c-0.38,3.41,2.01,6.04,5.42,5.95c0.02,0,0.03,0,0.05,0
				c0.04,0,75.84-2.99,75.84-2.99c3.5-0.18,6.43-3.01,6.52-6.33C183.19,130.31,180.49,127.78,177.1,127.87z"/>
			
				<linearGradient id="SVGID_00000072994123419799481690000017254605081122050948_" gradientUnits="userSpaceOnUse" x1="302.0121" y1="33.5761" x2="301.377" y2="51.9477" gradientTransform="matrix(0.9973 -0.0728 0.0728 0.9973 -162.1448 86.1682)">
				<stop  offset="0" style="stop-color:#9A6CF0"/>
				<stop  offset="0.0547" style="stop-color:#AE78F6"/>
				<stop  offset="0.1231" style="stop-color:#C182FB"/>
				<stop  offset="0.195" style="stop-color:#CB88FE"/>
				<stop  offset="0.2755" style="stop-color:#CF8AFF"/>
				<stop  offset="0.3745" style="stop-color:#C080F2"/>
				<stop  offset="0.566" style="stop-color:#9864D0"/>
				<stop  offset="0.7594" style="stop-color:#6945A8"/>
				<stop  offset="0.8151" style="stop-color:#6C47AC"/>
				<stop  offset="0.8725" style="stop-color:#744EB8"/>
				<stop  offset="0.9307" style="stop-color:#8259CD"/>
				<stop  offset="0.9891" style="stop-color:#9669EA"/>
				<stop  offset="1" style="stop-color:#9A6CF0"/>
			</linearGradient>
			<path style="fill:url(#SVGID_00000072994123419799481690000017254605081122050948_);" d="M179.75,98.29c-0.04,0-0.08,0-0.12,0
				c-24.94,0.85-49.87,1.69-74.8,2.54c-3.45,0.15-6.53,3.09-6.91,6.56c-0.38,3.41,2.01,6.04,5.42,5.95c0.02,0,0.03,0,0.05,0
				c0.04,0,75.84-2.99,75.84-2.99c3.5-0.18,6.43-3.01,6.52-6.33C185.83,100.74,183.14,98.21,179.75,98.29z"/>
			
				<linearGradient id="SVGID_00000129889258697085668280000016657991843603538101_" gradientUnits="userSpaceOnUse" x1="223.8513" y1="130.9228" x2="223.0972" y2="149.0209" gradientTransform="matrix(0.9986 -0.0538 0.0538 0.9986 -100.3291 67.7696)">
				<stop  offset="0" style="stop-color:#9A6CF0"/>
				<stop  offset="0.0547" style="stop-color:#AE78F6"/>
				<stop  offset="0.1231" style="stop-color:#C182FB"/>
				<stop  offset="0.195" style="stop-color:#CB88FE"/>
				<stop  offset="0.2755" style="stop-color:#CF8AFF"/>
				<stop  offset="0.3745" style="stop-color:#C080F2"/>
				<stop  offset="0.566" style="stop-color:#9864D0"/>
				<stop  offset="0.7594" style="stop-color:#6945A8"/>
				<stop  offset="0.8151" style="stop-color:#6C47AC"/>
				<stop  offset="0.8725" style="stop-color:#744EB8"/>
				<stop  offset="0.9307" style="stop-color:#8259CD"/>
				<stop  offset="0.9891" style="stop-color:#9669EA"/>
				<stop  offset="1" style="stop-color:#9A6CF0"/>
			</linearGradient>
			<path style="fill:url(#SVGID_00000129889258697085668280000016657991843603538101_);" d="M108.59,201.43
				c-3.53,0.02-5.89-2.53-5.32-5.91c0.58-3.43,3.89-6.32,7.44-6.45c13.67-0.48,27.33-0.96,41-1.43c3.55-0.15,6.15,2.46,5.77,5.79
				c-0.38,3.33-3.65,6.16-7.25,6.32C150.23,199.75,108.64,201.43,108.59,201.43z"/>
		</g>
		
			<linearGradient id="SVGID_00000124841049669694402900000002046546883602229430_" gradientUnits="userSpaceOnUse" x1="147.1303" y1="30.9126" x2="140.416" y2="70.7097">
			<stop  offset="0" style="stop-color:#BA7CED"/>
			<stop  offset="0.1431" style="stop-color:#AB74EE"/>
			<stop  offset="0.3232" style="stop-color:#9E6EF0"/>
			<stop  offset="0.4976" style="stop-color:#9A6CF0"/>
			<stop  offset="0.9544" style="stop-color:#9A6CF0"/>
			<stop  offset="1" style="stop-color:#9A6CF0"/>
		</linearGradient>
		<path style="fill:url(#SVGID_00000124841049669694402900000002046546883602229430_);" d="M162.76,48.96c-4,0.3-8,0.99-11.96,1.48
			c-0.98,0.12-2.19,0.52-2.86-0.47c-0.68-1.01,0.39-2.16,0.8-3.05c0.5-1.11,0.78-2.39,0.93-3.6c0.3-2.43-0.07-5.01-1.6-6.98
			c-2.08-2.67-7.29-3.84-10.45-2.73c-4.81,1.7-5.36,7.16-4.97,11.89c0.12,1.41,0.78,2.73,0.24,4.15c-0.67,1.74-4.31,1.72-5.84,1.75
			c-2.31,0.04-4.67-0.23-6.9,0.49c-2.61,0.85-4.8,2.95-5.75,5.53c-1.29,3.51-0.19,7.18,1.49,10.29c0.12,0.22,0.22,0.44,0.3,0.66
			c0.91,2.35-0.13,4.5-0.34,6.95c-0.05,0.63,0.05,0.79,0.5,1.23c1.02,1,3.81,0.63,5.06,0.62c2.19-0.02,4.39-0.02,6.58-0.11
			c11.05-0.5,22.11-1.01,33.16-1.51c1.67-0.08,3.55-0.24,4.64-1.51c1.3-1.51,0.88-3.79,0.39-5.72c-0.98-3.8-1.97-7.76-1.21-11.61
			c1.33-6.76,6.67-6.24,6.81-6.21c0.34,0.08,0.53-0.1,0.53-0.45c0-0.38-0.42-0.63-0.73-0.74C169.9,48.69,165.47,48.76,162.76,48.96z
			 M142.87,46.94c-0.58,0.66-1.33,1.2-2.19,1.38c-4.43,0.92-4.95-5.25-3.69-7.98c1.26-2.73,4.72-4.4,6.94-1.61
			C145.82,41.08,144.66,44.87,142.87,46.94z"/>
		<defs>
			
				<filter id="Adobe_OpacityMaskFilter_00000178192131447069579510000008155871860613886115_" filterUnits="userSpaceOnUse" x="115.95" y="53.22" width="83.13" height="34.19">
				<feColorMatrix  type="matrix" values="1 0 0 0 0  0 1 0 0 0  0 0 1 0 0  0 0 0 1 0"/>
			</filter>
		</defs>
		
			<mask maskUnits="userSpaceOnUse" x="115.95" y="53.22" width="83.13" height="34.19" id="SVGID_00000009562953356294322920000006589802364281068678_">
			<g style="filter:url(#Adobe_OpacityMaskFilter_00000178192131447069579510000008155871860613886115_);">
				<defs>
					
						<filter id="Adobe_OpacityMaskFilter_00000127034229617511017660000008460954756989053624_" filterUnits="userSpaceOnUse" x="115.95" y="53.22" width="83.13" height="34.19">
						<feFlood  style="flood-color:white;flood-opacity:1" result="back"/>
						<feBlend  in="SourceGraphic" in2="back" mode="normal"/>
					</filter>
				</defs>
				
					<mask maskUnits="userSpaceOnUse" x="115.95" y="53.22" width="83.13" height="34.19" id="SVGID_00000009562953356294322920000006589802364281068678_">
					<g style="filter:url(#Adobe_OpacityMaskFilter_00000127034229617511017660000008460954756989053624_);">
					</g>
				</mask>
				
					<radialGradient id="SVGID_00000157267862853581496530000002866053785660313510_" cx="-1624.6477" cy="-1105.6947" r="10.8595" gradientTransform="matrix(-0.1021 -1.5537 -3.8262 0.2514 -4238.9668 -2175.9329)" gradientUnits="userSpaceOnUse">
					<stop  offset="0" style="stop-color:#666666"/>
					<stop  offset="7.975399e-03" style="stop-color:#656565"/>
					<stop  offset="0.4688" style="stop-color:#2F2F2F"/>
					<stop  offset="0.8132" style="stop-color:#0D0D0D"/>
					<stop  offset="1" style="stop-color:#000000"/>
				</radialGradient>
				
					<path style="mask:url(#SVGID_00000009562953356294322920000006589802364281068678_);fill:url(#SVGID_00000157267862853581496530000002866053785660313510_);" d="
					M156.41,53.44c-22.95,1.51-41.06,10.28-40.44,19.6c0.61,9.32,19.71,15.65,42.66,14.14c22.95-1.51,41.06-10.28,40.44-19.6
					C198.46,58.26,179.36,51.93,156.41,53.44z"/>
			</g>
		</mask>
		
			<radialGradient id="SVGID_00000128481647574868976920000008644030908016392321_" cx="-1624.6477" cy="-1105.6947" r="10.8595" gradientTransform="matrix(-0.1021 -1.5537 -3.8262 0.2514 -4238.9668 -2175.9329)" gradientUnits="userSpaceOnUse">
			<stop  offset="0" style="stop-color:#729EB1"/>
			<stop  offset="0.1529" style="stop-color:#7DA4B4"/>
			<stop  offset="0.7013" style="stop-color:#9EB8BF"/>
			<stop  offset="1" style="stop-color:#ABC0C3"/>
		</radialGradient>
		<path style="fill:url(#SVGID_00000128481647574868976920000008644030908016392321_);" d="M156.41,53.44
			c-22.95,1.51-41.06,10.28-40.44,19.6c0.61,9.32,19.71,15.65,42.66,14.14c22.95-1.51,41.06-10.28,40.44-19.6
			C198.46,58.26,179.36,51.93,156.41,53.44z"/>
		
			<linearGradient id="SVGID_00000173869131622753071920000009617932306078068632_" gradientUnits="userSpaceOnUse" x1="140.6689" y1="34.0109" x2="142.8907" y2="76.1502">
			<stop  offset="0" style="stop-color:#BA7CED"/>
			<stop  offset="0.3634" style="stop-color:#CF8AFF"/>
			<stop  offset="0.4117" style="stop-color:#C685FC"/>
			<stop  offset="0.6038" style="stop-color:#A673F3"/>
			<stop  offset="0.7103" style="stop-color:#9A6CF0"/>
			<stop  offset="0.7908" style="stop-color:#9E6EF0"/>
			<stop  offset="0.8772" style="stop-color:#AB75EE"/>
			<stop  offset="0.942" style="stop-color:#BA7CED"/>
			<stop  offset="0.9566" style="stop-color:#B57AED"/>
			<stop  offset="0.9726" style="stop-color:#A873EF"/>
			<stop  offset="0.9842" style="stop-color:#9A6CF0"/>
		</linearGradient>
		<path style="fill:url(#SVGID_00000173869131622753071920000009617932306078068632_);" d="M160.91,49c-4,0.41-7.98,0.98-11.97,1.47
			c-0.98,0.12-2.19,0.52-2.86-0.47c-0.68-1.01,0.39-2.16,0.8-3.05c0.5-1.11,0.78-2.39,0.93-3.6c0.3-2.43-0.07-5.01-1.6-6.98
			c-2.08-2.67-5.96-3.71-9.13-2.59c-4.81,1.7-6.68,7.02-6.29,11.76c0.12,1.41,0.78,2.73,0.24,4.15c-0.67,1.74-4.26,1.61-5.79,1.64
			c-1.93,0.04-10.08-0.99-12.7,6.13c-1.29,3.51-0.19,7.18,1.49,10.29c1.41,2.61,0.2,4.94-0.03,7.6c-0.21,2.39,2.08,2.43,4.01,2.41
			c8.04-0.06,26.54-1.49,41.29-2.19c1.67-0.08,3.55-0.24,4.64-1.51c1.3-1.51,0.88-3.79,0.39-5.72c-0.98-3.8-1.97-7.76-1.21-11.61
			c0.37-1.88,1.26-3.69,2.56-5.11c1.1-1.2,3.46-2.77,5.91-2.31C168.35,47.93,164.37,48.64,160.91,49z M141.02,46.96
			c-0.58,0.66-1.33,1.2-2.19,1.38c-4.43,0.92-4.95-5.25-3.69-7.98c1.26-2.73,4.72-4.4,6.94-1.61
			C143.97,41.11,142.81,44.9,141.02,46.96z"/>
	</g>
</g>
</svg>
